<svg xmlns="http://www.w3.org/2000/svg" width="29" height="29" viewBox="0 0 29 29"><path fill="#FFF" fill-rule="evenodd" d="M19.448 5.008c-2.889.044-5.165 2.517-5.165 5.381v.694c-5.165-.91-7.704-2.3-10.506-5.207-1.663 3.211.175 5.902 2.189 7.377-1.357 0-2.495-.173-3.37-.955-.088-.043-.176 0-.132.087.744 2.69 3.283 4.643 5.253 5.207-1.795 0-2.977.26-4.246-.52-.088-.044-.175 0-.132.087.963 2.647 2.89 3.471 5.69 3.471-1.4 1.041-3.282 2.083-6.828 2.17-.131 0-.219.173-.087.26 1.313 1.085 4.552 1.91 9.105 1.91 7.485 0 13.57-6.596 13.57-14.754v-.434c1.182-.434 1.838-1.476 2.188-2.517a.093.093 0 0 0-.087-.087l-2.495.868c-.044 0-.088-.087-.044-.13 1.05-.825 1.838-1.866 2.189-2.864 0 0-.044-.044-.088-.044-1.182.478-2.32.955-3.195 1.215a.522.522 0 0 1-.438-.043c-.57-.304-2.276-1.172-3.37-1.172"/></svg>