<svg xmlns="http://www.w3.org/2000/svg" width="40" height="40" viewBox="0 0 40 40">
    <g fill="none" fill-rule="evenodd">
        <circle cx="20" cy="20" r="20" fill="#FFF"/>
        <g fill-rule="nonzero">
            <path fill="#00FD8D" d="M29.47 28.95l-6.46-3.13-.05-14.192a.445.445 0 0 1 .639-.406l6.124 2.969a.45.45 0 0 1 .253.404V28.63a.353.353 0 0 1-.507.32z"/>
            <path fill="#00E470" d="M23.01 25.82l-6.993-3.39 6.731-11.171a.443.443 0 0 1 .574-.172l6.21 3.01a.45.45 0 0 1 .187.64L23.01 25.82z"/>
            <path fill="#00C967" d="M23.01 25.82l-6.993-3.39L9.61 11.91c-.179-.293.132-.64.44-.49l5.968 2.893L23.01 25.82z"/>
            <path fill="#00AD6C" d="M15.511 28.95l-6.31-3.059a.356.356 0 0 1-.201-.32V11.458c0-.254.263-.42.49-.31l6.527 3.164V28.63a.353.353 0 0 1-.506.32z"/>
        </g>
    </g>
</svg>
