<svg xmlns="http://www.w3.org/2000/svg" width="40" height="40" viewBox="0 0 40 40">
    <g fill="none" fill-rule="evenodd">
        <circle cx="20" cy="20" r="20" fill="#FFF"/>
        <path fill="#55ACEE" fill-rule="nonzero" d="M32 14.13a9.699 9.699 0 0 1-2.71.716 4.591 4.591 0 0 0 2.075-2.514 9.67 9.67 0 0 1-2.997 1.103A4.8 4.8 0 0 0 24.923 12c-2.605 0-4.719 2.035-4.719 4.544 0 .356.042.703.123 1.036-3.921-.19-7.399-1.999-9.726-4.749a4.397 4.397 0 0 0-.64 2.285c0 1.576.834 2.968 2.1 3.782a4.823 4.823 0 0 1-2.137-.569v.058c0 2.202 1.627 4.038 3.785 4.455a4.872 4.872 0 0 1-2.13.079c.6 1.805 2.342 3.119 4.407 3.156a9.701 9.701 0 0 1-5.861 1.945c-.38 0-.757-.021-1.125-.064A13.722 13.722 0 0 0 16.233 30c8.68 0 13.426-6.924 13.426-12.93 0-.196-.005-.393-.014-.587A9.381 9.381 0 0 0 32 14.13z"/>
    </g>
</svg>
